<!-- Generated by IcoMoon.io -->
<svg version="1.1" xmlns="http://www.w3.org/2000/svg" width="43" height="32" viewBox="0 0 43 32">
<title>mail</title>
<path fill="#757575" d="M38.684-0.007h-34.683c-2.206 0-4.002 1.796-4.002 4.002v24.011c0 2.206 1.796 4.002 4.002 4.002h34.683c2.206 0 4.002-1.796 4.002-4.002v-24.011c0-2.206-1.795-4.002-4.002-4.002zM38.684 2.661c0.181 0 0.355 0.037 0.512 0.104l-17.854 15.474-17.854-15.474c0.151-0.065 0.327-0.104 0.512-0.104h34.683zM38.684 29.34h-34.683c-0.737 0-1.334-0.597-1.334-1.334v0-22.424l17.8 15.428c0.233 0.203 0.54 0.327 0.875 0.327s0.642-0.124 0.877-0.329l-0.002 0.001 17.8-15.428v22.424c0 0.737-0.597 1.334-1.334 1.334v0z"></path>
</svg>
