<!-- Generated by IcoMoon.io -->
<svg version="1.1" xmlns="http://www.w3.org/2000/svg" width="20" height="32" viewBox="0 0 20 32">
<title>phone</title>
<path fill="#757575" d="M17.005 0h-14.006c-1.655 0-3.001 1.347-3.001 3.001v26.012c0 1.655 1.347 3.001 3.001 3.001h14.006c1.655 0 3.001-1.347 3.001-3.001v-26.012c0-1.655-1.347-3.001-3.001-3.001zM2.999 2.001h14.006c0.553 0 1 0.448 1 1v0 21.010h-16.007v-21.010c0-0.553 0.448-1 1-1v0zM17.005 30.014h-14.006c-0.553 0-1-0.448-1-1v0-3.001h16.007v3.001c0 0.553-0.448 1-1 1v0z"></path>
</svg>
