<!-- Generated by IcoMoon.io -->
<svg version="1.1" xmlns="http://www.w3.org/2000/svg" width="36" height="32" viewBox="0 0 36 32">
<title>twitter</title>
<path fill="#afb1b8" d="M35.563 4.979c-1.222 0.548-2.641 0.953-4.126 1.143l-0.076 0.008c1.512-0.907 2.647-2.309 3.193-3.978l0.015-0.051c-1.331 0.803-2.88 1.415-4.53 1.748l-0.093 0.016c-1.333-1.421-3.223-2.307-5.32-2.307-4.025 0-7.289 3.263-7.289 7.289 0 0.001 0 0.003 0 0.004v-0c0 0.578 0.048 1.134 0.169 1.663-6.062-0.295-11.425-3.201-15.027-7.625-0.627 1.055-0.999 2.325-1.003 3.681v0.001c0 2.525 1.302 4.764 3.238 6.060-1.213-0.033-2.342-0.362-3.328-0.915l0.036 0.019v0.080c0.005 3.516 2.486 6.451 5.793 7.154l0.048 0.009c-0.556 0.153-1.195 0.24-1.854 0.24-0.020 0-0.040-0-0.061-0l0.003 0c-0.466 0-0.937-0.027-1.38-0.124 0.944 2.888 3.624 5.011 6.812 5.078-2.461 1.94-5.607 3.112-9.027 3.112-0.005 0-0.009 0-0.014 0h0.001c-0.020 0-0.045 0-0.069 0-0.591 0-1.172-0.038-1.743-0.11l0.068 0.007c3.141 2.052 6.987 3.272 11.118 3.272 0.023 0 0.047-0 0.070-0h-0.004c13.416 0 20.751-11.113 20.751-20.747 0-0.32-0.011-0.633-0.027-0.942 1.443-1.040 2.657-2.293 3.621-3.728l0.033-0.052z"></path>
</svg>
